<?xml version="1.0" encoding="utf-8"?>
<!-- Generator: Adobe Illustrator 27.2.0, SVG Export Plug-In . SVG Version: 6.00 Build 0)  -->
<svg version="1.1" id="Capa_2" xmlns="http://www.w3.org/2000/svg" xmlns:xlink="http://www.w3.org/1999/xlink" x="0px" y="0px"
	 viewBox="0 0 504 525" style="enable-background:new 0 0 504 525;" xml:space="preserve">
<style type="text/css">
	.st0{fill:#C6D8D3;}
</style>
<path class="st0" d="M303,426.3c-3.2,1-6.5,1.9-9.8,2.7c-14.7,3.5-29.3,5-43.7,4.7l9.3-8.2c10.8-0.4,21.7-1.8,32.5-4.4
	c4-1,7.9-2.1,11.8-3.3c36.7-11.8,67.6-36.1,88-69.3c14.5-23.7,22.4-50.1,23.5-77.1c-0.4,1.7-0.8,3.4-1.1,5c-1.2,7.9-4.2,15.2-7,23.2
	c-2.8,7.8-3.7,17-9.1,23.6c-2.7,3.3-5.1,5.9-8.7,3.3c-3.5-2.5-5.1-7.5-4.9-11.7c0.2-4.4,2.2-8.6,2.3-12.9c0.1-4.2-0.8-9-1.3-13.1
	c-0.5-4.7-3.2-7.6-4.3-11.8c-1.3-4.5,0.7-8.5,0.6-13.1c-0.1-4.8,0-9.2-0.5-13.9c-0.8-6-1.7-6.6-5.9-10.2c-3.5-3-6.1-6.3-6.3-10.9
	c-0.1-3.5,2-9.6-1.8-11.9c-2.9,4.3-6.7,0.9-10.3,0.3c-4.4-0.8-4.3,1.9-7.7,4.7c-2.5,2.1-7,4.2-9.9,5.6c-3.6,1.7-7.1,1.7-10.3-0.5
	c-5.6-3.8-12.3-8.4-17.3-12.7c-1.5-1.3-2.4-3.3-3.6-4.7c-1.1-1.1-2.9-1.8-4.2-2.6c-0.4-0.2-0.8-0.5-1-0.8c-2.5-3,0.8-8.4,0.3-12.6
	c-0.9-7.5-9.7-15.3-8-22.7c0.7-3.1,4.8-5.7,4.6-9.3c-0.1-2.5-2.5-2.6-1.5-5.6c0.6-1.7,2-2.2,3.2-3.3c0.7-0.6,1.5-1.4,2.4-2.2
	c5.2-4.7,13.8-11.8,19.5-9.1c1.7,0.8,1.8,3,3.7,3.8c1.4,0.6,4.1-0.6,5.8-0.1c3.6,1,6,3.6,10,3.9c-0.8-6.6,16.5-0.4,7.5-11.3
	c-4.1-4.9-9.1-6.4-15.5-4.9c0.5,0.4,1.2,1.7,2.1,2.1c-4,5.2-4.9,0.7-7.6-1.9c-1.8-1.7-7.2-3.5-9.7-3.5c0.7,1.7,2.4,2.7,2.5,4.6
	c-3,1-5.3-2.6-7.9-3.8c-3.2-1.5-5.2-1.9-8.1-0.8c-0.9,0.4-1.6,0.8-2.1,1.3c-3.7,3.5,1.2,10-4.1,13.5c-5.7,3.7-13.7,0.3-15.3-5.9
	c-1.1-4.3,3.8-3.2,3.8-6.8c-0.1-2.9-4.2-3.8-6.4-4.5c1.5-8.5-14-3.6-15.9-10.5c-1.3-4.7,4.9-3.8,7.3-2.2c1.7,1.2,6.2,6.6,7.8,1.2
	c1.7-5.8-5.4-4-7.8-4.2c-4.2-0.4-6.2-2.7-9-5.2c-1.3-1.1-2.6-2.2-3.9-3.1c-13-0.5-26.1,0.6-39.1,3.4c1,1.8-0.2,3.2-2.2,5.8
	c-1.5,2-7.3,13.5-10.4,12.7c-2-0.5-1-2.6-2-3.9c-0.8-1.1-2.3-1.6-3.2-2.5c-1.3-1.3-3.6-3.6-4.9-5.6c-4,1.4-7.9,3-11.7,4.8
	c0,0.1,0.1,0.1,0.1,0.2c0.5,0.5,2.3,1.4,2.8,1.9c1.6,1.9,3.3,2.9,0.9,5.8c-4.2,5.2-8.8-0.9-12.8,0.9c-0.8,0.4-1.5,0.9-2.2,1.5
	c-2.5,2.5-3.5,6.3-7.4,7.8c-4.3,1.6-10.8,3.7-9.4,9.7c1.7,0.1,3.4,0.2,5.2,0c0.7,2.3,1.7,5.1,1.4,7.5c6.2-0.4,4-2.9,4.7-7
	c0.6-3.3,3.7-4.2,5.5-6.4c0.4-0.4,0.6-0.9,0.9-1.4c1.4-3.3-0.4-7.3,5.1-6.6c3.3,0.4,4.7,3.1,8.5,1.6c1,1.3,1.4,3.3,1.3,4.9
	c4.8-1,5.9,1.2,8.9,4c1.8,1.6,7.2,6.5,1.4,8.1c-3.1,0.9-2.3-1.3-4.7-2.2c-2.8-1-2-0.3-4.6,0.8c-3.6,1.5-8.9,2-4.2,5.3
	c3.6,2.6,8.2,2.2,2.6,6.2c-1.2,0.9-3.3,2.7-4.5,3.3c-2.9,1.4-2.1-0.3-4.4,0.1c-6.6,1.2,0.5,5.2-3.1,9.1c-0.9,1-2,1.7-3.1,2.4
	c-1.7,1.1-3.4,2-4.8,4.1c-1.9,2.9-3.9,6.1-5.6,9.1c-2.1,3.9-1.6,7.7-3.1,11.5c-1.7,4.2-4.4,4.5-2.9,9.4c0.9,3,3.4,8.2-0.8,10.3
	c-1.3-3.6-0.2-7.2-2.4-10.1c-2-2.7-5.4-3.5-8.7-2.2c-4.3,1.6-12.1,10.3-13.8,14.5c-1.7,4.2-3.3,16.9,0.6,20.4
	c5.9,5.3,8.1-10.7,13.3-11.7c3.9,4.9-1.4,9.9,0.5,14.7c5.4,0.5,10.1-0.1,9.2,7.5l1.5,1.8c1.1,6.4,3,8.7,9.4,5.8
	c2.6-1.2,5.1-2.6,7.4-4.4c1.4-1,2.8-2.2,4.1-3.4c1.3-1.2,3.3-4.1,5-4.7c2.5-1,5.6,0.3,8,0c2.8-0.3,4.2-1.9,6.8-2.6
	c2.8-0.7,5.1,0.4,7.9-0.2c1.6,2.4,6.7,3.8,9.3,4.8c2,0.7,4.2,1.4,6.3,1.7c1.8,0.2,4.8-0.4,6.4,0.1c4.1,1.1,6.8,6.7,8,10.3
	c0.9,2.9-1.9,10.1,0.1,11.9c3.5,3.4,6.1-3.8,9.1-4.6c2-0.5,2.1,0.7,4.1,0.8c2.2,0,3.3-1.1,5.6-1.3c3.8-0.4,7.8,1.4,11.7,1.5
	c5.1,0.1,6.7-1.3,11.2,1.4c9.1,5.5,8,12.6,3.9,21.6c-3.3,7.2-4.7,16.4-4.2,24.2c0.3,4.7,3,7.8-0.7,12.1c-2.8,3.4-6.2,4.2-7.7,8.7
	c-0.5,1.5-0.6,3-0.6,4.6c0.5,8.3,0.1,20.3-5.9,32.6c-2.8,5.7-5.4,8.7-10.7,16.2c-4.2,6-9.9,14.4-16.1,25.2c-0.9,1.5-3.2,0.9-3.2-0.8
	c-0.1-4.7-0.8-10.1-2.7-16c-2.3-6.9-3.8-6.5-5.5-12.4c-3.6-12.1,1.5-17.6-1.1-30.7c-0.7-3.6-2.1-8.2-5-13.5c-1.6-3.6-3.8-6.7-7.5-9
	c-5.7-3.5-12.6-3.9-16.8-9.2c-2.7-3.4-2.8-7-4.7-10.8c-2.1-4.1-5.8-4.5-9.6-6.1c-2.1-0.9-3.8-2.4-5.1-4.3
	c-3.1-4.4-3.9-10.8-3.2-15.9c0.3-2.5,2.2-7.7,3.2-12.7c0.7-3.7,1.1-7.2,0-9.6c-0.3-0.8-0.8-1.4-1.5-1.9c-3.3-2.4-6.9,2.6-9.8,2.5
	c-2,0-6.1-2.4-8.1-3c-1.6-4.4-4.3-4.5-8.6-4.4c-3.5-4.6-6.2-6.4-11.7-5.8c-6,0.7-7.6-1.9-11.7-5.5c-5.1-4.5-4.2-6.4-5.1-12.9
	c-0.6-4.7-1.4-12.8-4.1-16.6c-5.2,1.9,0.3,12.5-6.6,12.2c-1.8-5.2,0.5-8.6,1-13.5c0.4-3.9-1.2-8.2-1.2-12c0-3.5,0.7-8.4,2.2-12
	c1.7-3.9,5.2-6.2,6.7-10.2c0.6-1.7,0.8-3.5,1-5.3c-0.5,0.8-1.1,1.7-1.6,2.5c-22.4,36.7-29.3,80-19.2,121.9
	c6.1,25.3,17.9,48.1,34.4,67.3c-5.2-1.5-10.1-3.4-14.8-5.6c-12.7-17.4-22.2-37.5-27.6-59.8c-4.6-19.3-5.8-38.5-3.8-57.2
	c0.3-0.8,0.6-1.7,0.7-2.5c0.6-6.4,1.7-12.9,3.1-19.3c11.3-47.1,42.4-88,86.3-110.9c12-6.3,25-11.2,38.8-14.5
	c30.6-7.4,61.3-6,89.3,2.7c55.3,17,100.5,61.9,115.1,122.3C439.3,312.2,388.1,400.4,303,426.3z"/>
<path class="st0" d="M303,508.8h185.1V19.2H303v79.6c76.1,22.8,127.3,93.9,124.5,171.6c-2.6,73.3-52.8,137.8-124.5,159.1
	C303,455.9,303,482.3,303,508.8z"/>
<path class="st0" d="M203.8,508.8H18.6V19.2h185.1v79.6c-76.1,22.8-127.3,93.9-124.5,171.6c2.6,73.3,52.8,137.8,124.5,159.1
	C203.8,455.9,203.8,482.3,203.8,508.8z"/>
</svg>
